<?xml version="1.0" encoding="UTF-8" standalone="no"?><!DOCTYPE svg PUBLIC "-//W3C//DTD SVG 1.1//EN" "http://www.w3.org/Graphics/SVG/1.1/DTD/svg11.dtd"><svg width="100%" height="100%" viewBox="0 0 1000 1000" version="1.1" xmlns="http://www.w3.org/2000/svg" xmlns:xlink="http://www.w3.org/1999/xlink" xml:space="preserve" xmlns:serif="http://www.serif.com/" style="fill-rule:evenodd;clip-rule:evenodd;stroke-linecap:round;stroke-linejoin:round;stroke-miterlimit:1.5;"><g><g><circle cx="303.636" cy="318.182" r="218.182" style="fill:#fff;stroke:#009600;stroke-width:20.83px;"/><path d="M325.143,232.982c-16.119,0 -29.648,3.885 -40.586,11.657c-6.524,4.605 -12.425,11.13 -17.702,19.573c-5.373,8.731 -8.539,17.031 -9.498,24.898l98.153,0l-3.886,19.285l-96.57,0c-0.096,2.015 -0.144,3.934 -0.144,5.757c0,7.388 0.048,11.801 0.144,13.241l92.684,0l-4.03,19.285l-85.632,0c4.03,21.972 13.721,37.563 29.072,46.774c11.034,6.62 22.979,9.93 35.836,9.93c17.942,0 31.95,-4.701 42.024,-14.104l0,29.647c-11.993,5.565 -25.233,8.348 -39.721,8.348c-43.368,0 -72.68,-18.038 -87.935,-54.114c-3.07,-7.292 -5.709,-16.119 -7.916,-26.481l-22.019,0l4.029,-19.285l15.112,0c-0.288,-4.03 -0.432,-8.396 -0.432,-13.097c0,-1.919 0.048,-3.886 0.144,-5.901l-18.853,0l4.029,-19.285l16.695,0c5.949,-31.278 21.444,-53.73 46.486,-67.354c15.447,-8.443 32.478,-12.665 51.091,-12.665c17.846,0 32.862,3.886 45.047,11.657l-5.757,26.769c-11.705,-9.69 -24.994,-14.535 -39.865,-14.535Z" style="fill:#009600;fill-rule:nonzero;"/></g><g><circle cx="449.091" cy="681.818" r="218.182" style="fill:#fff;stroke:#009600;stroke-width:20.83px;"/><path d="M443.311,790.909l0,-21.674c-10.837,-1.364 -19.647,-3.792 -26.43,-7.284c-6.783,-3.492 -12.643,-9.131 -17.579,-16.918c-4.937,-7.786 -7.807,-17.299 -8.61,-28.537l21.794,-4.094c1.686,11.64 4.656,20.189 8.911,25.647c6.1,7.707 13.405,12.001 21.914,12.884l0,-68.994c-8.91,-1.686 -18.021,-5.138 -27.333,-10.356c-6.903,-3.853 -12.221,-9.191 -15.954,-16.014c-3.733,-6.823 -5.599,-14.57 -5.599,-23.239c0,-15.412 5.459,-27.895 16.376,-37.447c7.305,-6.422 18.141,-10.356 32.51,-11.801l0,-10.355l12.764,0l0,10.355c12.603,1.205 22.596,4.897 29.982,11.078c9.472,7.867 15.171,18.664 17.098,32.39l-22.396,3.372c-1.285,-8.509 -3.954,-15.031 -8.008,-19.567c-4.053,-4.535 -9.612,-7.525 -16.676,-8.97l0,62.492c10.917,2.729 18.141,4.857 21.673,6.382c6.743,2.97 12.242,6.582 16.496,10.837c4.255,4.254 7.526,9.311 9.814,15.171c2.288,5.86 3.431,12.202 3.431,19.025c0,15.011 -4.776,27.534 -14.328,37.568c-9.553,10.034 -21.915,15.412 -37.086,16.135l0,21.914l-12.764,0Zm0,-189.765c-8.428,1.284 -15.071,4.656 -19.927,10.114c-4.857,5.459 -7.285,11.921 -7.285,19.386c0,7.385 2.067,13.566 6.201,18.543c4.134,4.977 11.138,8.951 21.011,11.921l0,-59.964Zm12.764,149.789c8.428,-1.043 15.392,-4.696 20.891,-10.957c5.498,-6.261 8.248,-14.008 8.248,-23.239c0,-7.867 -1.947,-14.188 -5.84,-18.965c-3.893,-4.776 -11.66,-9.05 -23.299,-12.823l0,65.984Z" style="fill:#009600;fill-rule:nonzero;"/></g><g><circle cx="696.364" cy="420" r="218.182" style="fill:#fff;stroke:#009600;stroke-width:20.83px;"/><path d="M683.267,529.091l0,-48.369l-61.764,0l0,-20.687l61.764,0l0,-21.283l-61.764,0l0,-22.026l50.751,0l-60.425,-105.817l29.766,0l43.16,76.795c4.862,8.732 8.632,16.371 11.311,22.92c2.282,-5.259 6.35,-13.345 12.204,-24.259l40.779,-75.456l31.849,0l-60.275,105.817l50.75,0l0,22.026l-61.317,0l0,21.283l61.317,0l0,20.687l-61.317,0l0,48.369l-26.789,0Z" style="fill:#009600;fill-rule:nonzero;"/></g></g></svg>